<svg width="48" height="48" viewBox="0 0 48 48" fill="none" xmlns="http://www.w3.org/2000/svg">
<path d="M14.7439 18.2056C14.7439 17.6776 14.9119 17.2336 15.2479 16.8736C15.5839 16.5376 16.0159 16.3696 16.5439 16.3696C17.0719 16.3696 17.5039 16.5376 17.8399 16.8736C18.1759 17.2336 18.3439 17.6776 18.3439 18.2056C18.3439 18.7576 18.1759 19.2016 17.8399 19.5376C17.5039 19.8736 17.0719 20.0416 16.5439 20.0416C16.0159 20.0416 15.5839 19.8736 15.2479 19.5376C14.9119 19.2016 14.7439 18.7576 14.7439 18.2056ZM27.3799 18.2056C27.3799 17.6776 27.5479 17.2336 27.8839 16.8736C28.2199 16.5376 28.6519 16.3696 29.1799 16.3696C29.7079 16.3696 30.1399 16.5376 30.4759 16.8736C30.8119 17.2336 30.9799 17.6776 30.9799 18.2056C30.9799 18.7576 30.8119 19.2016 30.4759 19.5376C30.1399 19.8736 29.7079 20.0416 29.1799 20.0416C28.6519 20.0416 28.2199 19.8736 27.8839 19.5376C27.5479 19.2016 27.3799 18.7576 27.3799 18.2056Z" fill="#FFFAFA"/>
<path d="M9.05591 22.3954H11.6479L11.8639 22.8634C12.8479 24.8794 14.3839 26.4634 16.4719 27.6154C18.5839 28.7674 21.0559 29.3434 23.8879 29.3434C26.7199 29.3434 29.1919 28.7674 31.3039 27.6154C33.4159 26.4634 34.9519 24.8794 35.9119 22.8634L36.1279 22.3954H38.7199L38.5039 22.9714C37.8079 24.8674 36.7519 26.4994 35.3359 27.8674C33.9199 29.2354 32.2399 30.2914 30.2959 31.0354C28.3519 31.7794 26.2159 32.1514 23.8879 32.1514C21.5839 32.1514 19.4479 31.7794 17.4799 31.0354C15.5359 30.2914 13.8559 29.2354 12.4399 27.8674C11.0239 26.4994 9.96791 24.8674 9.27191 22.9714L9.05591 22.3954Z" fill="#FFFAFA"/>
</svg>
