<svg width="24" height="24" viewBox="0 0 24 24" fill="none" xmlns="http://www.w3.org/2000/svg">
<path d="M8.27263 3.0627C7.31502 3.10788 6.66107 3.2607 6.08939 3.48534C5.49772 3.71593 4.99623 4.02535 4.49727 4.52612C3.9983 5.02688 3.69104 5.52873 3.46208 6.12129C3.2405 6.69424 3.09038 7.34872 3.04808 8.30687C3.00577 9.26502 2.99641 9.57301 3.00109 12.0171C3.00577 14.4611 3.01657 14.7675 3.06302 15.7276C3.10874 16.6851 3.26102 17.3388 3.48566 17.9107C3.7166 18.5024 4.02566 19.0037 4.52661 19.5028C5.02755 20.002 5.52904 20.3085 6.12305 20.5378C6.69545 20.759 7.35012 20.9099 8.30809 20.9518C9.26606 20.9938 9.5744 21.0035 12.0177 20.9988C14.4611 20.9941 14.7687 20.9833 15.7287 20.9378C16.6886 20.8922 17.339 20.7389 17.911 20.5153C18.5027 20.2838 19.0043 19.9753 19.5031 19.4742C20.0019 18.9731 20.309 18.4709 20.5378 17.8779C20.7595 17.3055 20.9102 16.6509 20.9518 15.6936C20.9937 14.7329 21.0036 14.4262 20.9989 11.9825C20.9943 9.53881 20.9833 9.23244 20.9377 8.27267C20.8922 7.3129 20.7397 6.66112 20.5153 6.08889C20.284 5.49722 19.9753 4.99628 19.4745 4.49677C18.9737 3.99727 18.4712 3.69037 17.8784 3.46212C17.3057 3.24054 16.6514 3.08952 15.6934 3.04812C14.7354 3.00672 14.4271 2.9961 11.9828 3.00078C9.53858 3.00546 9.23258 3.0159 8.27263 3.0627ZM8.37775 19.3327C7.50024 19.2945 7.02378 19.1487 6.70625 19.0267C6.28577 18.8647 5.98624 18.6689 5.6698 18.3555C5.35336 18.0421 5.15896 17.7415 4.99479 17.3219C4.87149 17.0044 4.72299 16.5285 4.68195 15.6509C4.63731 14.7025 4.62795 14.4178 4.62273 12.0149C4.61751 9.61207 4.62669 9.32766 4.66827 8.37887C4.70571 7.50209 4.85241 7.02508 4.97427 6.70774C5.13628 6.28671 5.3314 5.98773 5.6455 5.67147C5.9596 5.3552 6.25931 5.16044 6.67925 4.99628C6.99641 4.87244 7.47234 4.7252 8.34949 4.68344C9.29864 4.63844 9.58304 4.62944 11.9855 4.62422C14.388 4.619 14.6731 4.628 15.6226 4.66976C16.4994 4.70792 16.9766 4.85318 17.2936 4.97576C17.7143 5.13776 18.0136 5.33234 18.3299 5.64699C18.6461 5.96163 18.8411 6.26025 19.0052 6.6811C19.1293 6.99736 19.2765 7.47311 19.3179 8.35079C19.3631 9.29994 19.3733 9.58453 19.3777 11.9868C19.382 14.3891 19.3735 14.6744 19.3319 15.6229C19.2936 16.5004 19.1482 16.977 19.0259 17.2949C18.8639 17.7152 18.6686 18.0149 18.3543 18.331C18.0401 18.6471 17.7407 18.8418 17.3206 19.006C17.0038 19.1297 16.5273 19.2773 15.6509 19.319C14.7018 19.3637 14.4174 19.373 12.014 19.3782C9.61058 19.3835 9.32708 19.3737 8.37793 19.3327M15.7148 7.1896C15.7152 7.40322 15.7789 7.61194 15.8978 7.78936C16.0168 7.96677 16.1858 8.10492 16.3833 8.18632C16.5808 8.26773 16.798 8.28873 17.0074 8.24668C17.2169 8.20463 17.4091 8.10141 17.5599 7.95008C17.7107 7.79875 17.8132 7.60611 17.8545 7.39651C17.8957 7.18692 17.8739 6.96979 17.7918 6.77259C17.7097 6.57538 17.5709 6.40696 17.3931 6.28863C17.2152 6.1703 17.0063 6.10736 16.7927 6.10779C16.5063 6.10836 16.2319 6.22265 16.0297 6.42552C15.8276 6.62839 15.7143 6.90323 15.7148 7.1896ZM7.37892 12.0088C7.38396 14.5612 9.45686 16.6257 12.0087 16.6208C14.5606 16.6159 16.6265 14.5432 16.6217 11.9908C16.6168 9.43836 14.5434 7.37338 11.9911 7.37842C9.43886 7.38346 7.37406 9.45673 7.37892 12.0088ZM9.00002 12.0056C8.99884 11.4122 9.17365 10.8318 9.50232 10.3378C9.831 9.84378 10.2988 9.45833 10.8465 9.23017C11.3943 9.00202 11.9974 8.94141 12.5796 9.05602C13.1617 9.17063 13.6969 9.4553 14.1173 9.87404C14.5377 10.2928 14.8245 10.8268 14.9414 11.4085C15.0583 11.9902 15.0001 12.5936 14.7741 13.1422C14.5481 13.6909 14.1645 14.1602 13.6718 14.4908C13.1791 14.8214 12.5994 14.9985 12.006 14.9997C11.6121 15.0005 11.2218 14.9237 10.8575 14.7737C10.4931 14.6237 10.162 14.4033 9.88281 14.1253C9.60367 13.8473 9.38203 13.517 9.23056 13.1532C9.07909 12.7895 9.00075 12.3995 9.00002 12.0056Z" fill="black"/>
</svg>
